<svg xmlns="http://www.w3.org/2000/svg" xmlns:xlink="http://www.w3.org/1999/xlink" width="500" zoomAndPan="magnify" viewBox="0 0 375 374.999991" height="500" preserveAspectRatio="xMidYMid meet" version="1.0"><defs><clipPath id="5e672b746e"><path d="M 44.339844 239.039062 L 55.878906 239.039062 L 55.878906 374.738281 L 44.339844 374.738281 Z M 44.339844 239.039062 " clip-rule="nonzero"/></clipPath><clipPath id="3c3278bbe4"><path d="M 143.152344 248 L 153.972656 248 L 153.972656 374.738281 L 143.152344 374.738281 Z M 143.152344 248 " clip-rule="nonzero"/></clipPath><clipPath id="2be9c15979"><path d="M 354.484375 231.109375 L 358 231.109375 L 358 374.738281 L 354.484375 374.738281 Z M 354.484375 231.109375 " clip-rule="nonzero"/></clipPath><clipPath id="7e773a4db4"><path d="M 97 253.457031 L 100.597656 253.457031 L 100.597656 374.738281 L 97 374.738281 Z M 97 253.457031 " clip-rule="nonzero"/></clipPath><clipPath id="ffc3e00b4e"><path d="M 297 253.457031 L 300.390625 253.457031 L 300.390625 374.738281 L 297 374.738281 Z M 297 253.457031 " clip-rule="nonzero"/></clipPath><clipPath id="15e94af70a"><path d="M 355 321.214844 L 373.53125 321.214844 L 373.53125 347.886719 L 355 347.886719 Z M 355 321.214844 " clip-rule="nonzero"/></clipPath></defs><path fill="#f9c1bf" d="M 45.894531 236.382812 C 44.277344 231.457031 30.929688 213.179688 39.378906 207.707031 C 42.792969 205.335938 46.207031 207.34375 49.441406 208.4375 C 53.9375 210.078125 56.632812 209.898438 57.53125 215.734375 C 58.429688 221.023438 54.835938 236.601562 49.804688 236.566406 L 45.894531 236.382812 " fill-opacity="1" fill-rule="nonzero"/><path fill="#f9c1bf" d="M 46.285156 239.652344 C 40.90625 238.878906 16.601562 235.242188 23.664062 225.730469 C 25.816406 222.785156 31.011719 222.40625 34.277344 221.46875 C 39.054688 220.207031 41.632812 225.542969 44.464844 228.890625 C 47.570312 232.746094 50.535156 233.941406 48.078125 238.453125 L 46.285156 239.652344 " fill-opacity="1" fill-rule="nonzero"/><path fill="#f9c1bf" d="M 46.285156 237.046875 C 49.273438 232.441406 62.898438 211.695312 68.355469 222.238281 C 70.058594 225.472656 68.175781 230.402344 67.613281 233.800781 C 66.699219 238.722656 60.839844 238.808594 56.648438 239.976562 C 51.886719 241.179688 49.558594 243.386719 46.585938 239.207031 L 46.285156 237.046875 " fill-opacity="1" fill-rule="nonzero"/><path fill="#e6cf3c" d="M 27.78125 266.984375 C 26.996094 262.769531 28.480469 243.933594 21.460938 243.722656 C 18.566406 243.527344 18.109375 248.191406 16.558594 250.382812 C 14.449219 253.511719 11.890625 252.8125 13.433594 257.359375 C 14.785156 261.519531 22.5 271.042969 25.503906 268.820312 L 27.78125 266.984375 " fill-opacity="1" fill-rule="nonzero"/><path fill="#e6cf3c" d="M 30.710938 270.210938 C 33.03125 266.574219 43.4375 250.058594 35.308594 248.578125 C 32.8125 248.09375 30.023438 250.941406 27.941406 252.3125 C 24.9375 254.382812 26.222656 259.078125 26.425781 262.738281 C 26.730469 266.867188 25.824219 269.324219 29.234375 270.558594 L 30.710938 270.210938 " fill-opacity="1" fill-rule="nonzero"/><path fill="#3a5a3c" d="M 46.21875 241.628906 C 41.078125 242.0625 35.933594 232.929688 35.078125 228.578125 C 41.503906 225.535156 46.648438 235.105469 47.503906 239.890625 L 46.21875 241.628906 " fill-opacity="1" fill-rule="nonzero"/><path fill="#3a5a3c" d="M 46.648438 241.636719 C 50.347656 241.933594 54.050781 235.699219 54.664062 232.730469 C 50.039062 230.652344 46.335938 237.183594 45.71875 240.449219 L 46.648438 241.636719 " fill-opacity="1" fill-rule="nonzero"/><path fill="#3a5a3c" d="M 26.222656 272.203125 C 22.492188 272.519531 18.761719 265.898438 18.136719 262.742188 C 22.804688 260.53125 26.53125 267.472656 27.152344 270.941406 L 26.222656 272.203125 " fill-opacity="1" fill-rule="nonzero"/><path fill="#3a5a3c" d="M 26.53125 272.210938 C 29.214844 272.421875 31.902344 267.902344 32.347656 265.75 C 28.992188 264.242188 26.308594 268.980469 25.859375 271.347656 L 26.53125 272.210938 " fill-opacity="1" fill-rule="nonzero"/><g clip-path="url(#5e672b746e)"><path fill="#3a5a3c" d="M 44.859375 240.738281 C 51.550781 262.15625 51.257812 284.808594 52.429688 306.996094 C 53.589844 328.996094 55.132812 352.019531 49.832031 373.613281 C 49.554688 374.742188 51.292969 375.222656 51.570312 374.09375 C 56.910156 352.351562 55.460938 329.148438 54.230469 306.996094 C 52.988281 284.640625 53.34375 261.851562 46.597656 240.257812 C 46.253906 239.152344 44.511719 239.625 44.859375 240.738281 " fill-opacity="1" fill-rule="nonzero"/></g><path fill="#3a5a3c" d="M 24.492188 268.820312 C 24.125 303.257812 22.746094 337.699219 23.78125 372.144531 C 23.816406 373.304688 25.621094 373.304688 25.585938 372.144531 C 24.546875 337.699219 25.929688 303.257812 26.292969 268.820312 C 26.308594 267.652344 24.503906 267.65625 24.492188 268.820312 " fill-opacity="1" fill-rule="nonzero"/><path fill="#3a5a3c" d="M 41.714844 286.898438 C 41.714844 286.898438 31.9375 278.546875 24.933594 312.132812 C 51.03125 292.34375 41.714844 286.898438 41.714844 286.898438 " fill-opacity="1" fill-rule="nonzero"/><path fill="#3a5a3c" d="M 69.363281 249.902344 C 69.363281 249.902344 59.585938 241.550781 52.582031 275.136719 C 78.679688 255.347656 69.363281 249.902344 69.363281 249.902344 " fill-opacity="1" fill-rule="nonzero"/><path fill="#3a5a3c" d="M 71.070312 295.019531 C 71.070312 295.019531 61.289062 286.667969 54.289062 320.253906 C 80.382812 300.464844 71.070312 295.019531 71.070312 295.019531 " fill-opacity="1" fill-rule="nonzero"/><path fill="#3a5a3c" d="M 71.070312 317.898438 C 71.070312 317.898438 61.289062 309.546875 54.289062 343.132812 C 80.382812 323.347656 71.070312 317.898438 71.070312 317.898438 " fill-opacity="1" fill-rule="nonzero"/><path fill="#3a5a3c" d="M 12.152344 312.097656 C 12.152344 312.097656 23.433594 305.917969 23.421875 340.222656 C 1.921875 315.527344 12.152344 312.097656 12.152344 312.097656 " fill-opacity="1" fill-rule="nonzero"/><path fill="#f9c1bf" d="M 192.691406 251.914062 C 191.074219 246.984375 177.722656 228.710938 186.171875 223.238281 C 189.585938 220.863281 193.003906 222.871094 196.238281 223.96875 C 200.730469 225.609375 203.425781 225.425781 204.324219 231.265625 C 205.222656 236.558594 201.628906 252.128906 196.597656 252.097656 L 192.691406 251.914062 " fill-opacity="1" fill-rule="nonzero"/><path fill="#f9c1bf" d="M 193.082031 255.183594 C 187.699219 254.410156 163.398438 250.769531 170.457031 241.257812 C 172.609375 238.3125 177.808594 237.933594 181.074219 237 C 185.847656 235.734375 188.425781 241.074219 191.257812 244.425781 C 194.367188 248.277344 197.328125 249.46875 194.875 253.984375 L 193.082031 255.183594 " fill-opacity="1" fill-rule="nonzero"/><path fill="#f9c1bf" d="M 193.082031 252.578125 C 196.066406 247.972656 209.691406 227.226562 215.148438 237.765625 C 216.855469 241.003906 214.972656 245.9375 214.40625 249.328125 C 213.492188 254.253906 207.636719 254.339844 203.445312 255.503906 C 198.683594 256.707031 196.351562 258.917969 193.382812 254.734375 L 193.082031 252.578125 " fill-opacity="1" fill-rule="nonzero"/><path fill="#f9c1bf" d="M 303.0625 251.082031 C 304.679688 246.152344 318.027344 227.875 309.578125 222.40625 C 306.164062 220.03125 302.75 222.039062 299.515625 223.132812 C 295.023438 224.777344 292.324219 224.59375 291.425781 230.429688 C 290.527344 235.71875 294.125 251.296875 299.15625 251.261719 L 303.0625 251.082031 " fill-opacity="1" fill-rule="nonzero"/><path fill="#f9c1bf" d="M 302.671875 254.347656 C 308.050781 253.578125 332.351562 249.9375 325.296875 240.425781 C 323.144531 237.480469 317.945312 237.101562 314.679688 236.164062 C 309.902344 234.902344 307.324219 240.238281 304.496094 243.589844 C 301.390625 247.441406 298.421875 248.636719 300.878906 253.148438 L 302.671875 254.347656 " fill-opacity="1" fill-rule="nonzero"/><path fill="#f9c1bf" d="M 302.671875 251.746094 C 299.683594 247.136719 286.058594 226.390625 280.601562 236.933594 C 278.898438 240.167969 280.78125 245.101562 281.347656 248.496094 C 282.257812 253.417969 288.117188 253.503906 292.308594 254.671875 C 297.070312 255.875 299.398438 258.085938 302.371094 253.902344 L 302.671875 251.746094 " fill-opacity="1" fill-rule="nonzero"/><path fill="#f9c1bf" d="M 87.011719 286.777344 C 86.296875 282.550781 78.402344 265.433594 84.910156 262.742188 C 87.550781 261.53125 89.589844 265.734375 91.796875 267.238281 C 94.851562 269.417969 97.007812 267.855469 97.128906 272.664062 C 97.300781 277.035156 93.359375 288.699219 89.78125 287.683594 L 87.011719 286.777344 " fill-opacity="1" fill-rule="nonzero"/><path fill="#f9c1bf" d="M 85.386719 290.839844 C 81.957031 288.257812 66.507812 276.492188 73.609375 272.210938 C 75.78125 270.875 79.375 272.546875 81.804688 273.089844 C 85.328125 273.964844 85.746094 278.816406 86.820312 282.316406 C 87.957031 286.292969 89.660156 288.273438 86.890625 290.640625 L 85.386719 290.839844 " fill-opacity="1" fill-rule="nonzero"/><path fill="#f14a58" d="M 98.835938 252.421875 C 100.453125 247.5 113.808594 229.222656 105.355469 223.746094 C 101.941406 221.378906 98.527344 225.835938 95.292969 226.929688 C 90.800781 228.574219 88.101562 225.9375 87.203125 231.777344 C 86.304688 237.066406 89.902344 252.644531 94.933594 252.605469 L 98.835938 252.421875 " fill-opacity="1" fill-rule="nonzero"/><path fill="#f14a58" d="M 100.433594 257.9375 C 105.5 255.933594 128.332031 246.730469 119.308594 239.117188 C 116.546875 236.75 111.402344 237.589844 108.015625 237.441406 C 103.082031 237.324219 101.777344 243.121094 99.777344 247.039062 C 97.625 251.515625 95.007812 253.363281 98.421875 257.1875 L 100.433594 257.9375 " fill-opacity="1" fill-rule="nonzero"/><path fill="#f14a58" d="M 99.292969 250.746094 C 95.550781 246.75 78.523438 228.78125 74.992188 240.136719 C 73.878906 243.628906 76.589844 248.144531 77.738281 251.382812 C 79.496094 256.0625 85.277344 255.09375 89.609375 255.488281 C 94.5 255.820312 97.179688 257.578125 99.375 252.925781 L 99.292969 250.746094 " fill-opacity="1" fill-rule="nonzero"/><path fill="#f14a58" d="M 250.238281 264.773438 C 251.855469 259.847656 265.207031 241.570312 256.757812 236.097656 C 253.34375 233.726562 249.929688 238.183594 246.695312 239.28125 C 242.199219 240.921875 239.503906 238.285156 238.605469 244.125 C 237.707031 249.417969 241.300781 264.992188 246.332031 264.957031 L 250.238281 264.773438 " fill-opacity="1" fill-rule="nonzero"/><path fill="#f14a58" d="M 251.839844 270.285156 C 256.898438 268.277344 279.730469 259.078125 270.710938 251.464844 C 267.949219 249.097656 262.804688 249.941406 259.414062 249.789062 C 254.480469 249.671875 253.175781 255.46875 251.179688 259.390625 C 249.027344 263.859375 246.410156 265.714844 249.820312 269.539062 L 251.839844 270.285156 " fill-opacity="1" fill-rule="nonzero"/><path fill="#f14a58" d="M 250.699219 263.097656 C 246.953125 259.097656 229.925781 241.128906 226.390625 252.484375 C 225.277344 255.972656 227.992188 260.492188 229.140625 263.730469 C 230.898438 268.410156 236.679688 267.441406 241.007812 267.835938 C 245.902344 268.167969 248.582031 269.925781 250.777344 265.273438 L 250.699219 263.097656 " fill-opacity="1" fill-rule="nonzero"/><path fill="#f14a58" d="M 314.769531 274.53125 C 318.503906 272.53125 332.097656 259.613281 336.636719 265.054688 C 338.589844 267.230469 335.28125 270.496094 334.554688 273.09375 C 333.460938 276.71875 335.59375 278.3125 331.125 279.921875 C 327.082031 281.441406 314.9375 281.25 314.773438 277.480469 L 314.769531 274.53125 " fill-opacity="1" fill-rule="nonzero"/><path fill="#f14a58" d="M 310.460938 274.21875 C 311.816406 270.109375 318.054688 251.554688 324.265625 257.082031 C 326.1875 258.765625 325.738281 262.75 325.976562 265.261719 C 326.253906 268.933594 321.832031 270.839844 318.886719 272.960938 C 315.519531 275.289062 314.1875 277.546875 311.113281 275.605469 L 310.460938 274.21875 " fill-opacity="1" fill-rule="nonzero"/><path fill="#e6cf3c" d="M 153.199219 242.175781 C 152.410156 237.964844 153.894531 219.128906 146.871094 218.917969 C 143.980469 218.71875 143.523438 223.382812 141.972656 225.574219 C 139.863281 228.703125 137.308594 228.003906 138.851562 232.554688 C 140.199219 236.710938 147.914062 246.234375 150.921875 244.011719 L 153.199219 242.175781 " fill-opacity="1" fill-rule="nonzero"/><path fill="#e6cf3c" d="M 156.121094 245.402344 C 158.445312 241.765625 168.855469 225.25 160.726562 223.769531 C 158.226562 223.289062 155.4375 226.132812 153.355469 227.507812 C 150.351562 229.578125 151.640625 234.269531 151.839844 237.929688 C 152.144531 242.058594 151.238281 244.515625 154.644531 245.75 L 156.121094 245.402344 " fill-opacity="1" fill-rule="nonzero"/><path fill="#e6cf3c" d="M 204.078125 274.53125 C 207.8125 272.53125 221.40625 259.613281 225.941406 265.054688 C 227.894531 267.230469 224.585938 270.496094 223.863281 273.09375 C 222.765625 276.71875 224.898438 278.3125 220.433594 279.921875 C 216.386719 281.441406 204.242188 281.25 204.082031 277.480469 L 204.078125 274.53125 " fill-opacity="1" fill-rule="nonzero"/><path fill="#e6cf3c" d="M 199.765625 274.21875 C 201.121094 270.109375 207.359375 251.554688 213.570312 257.082031 C 215.496094 258.765625 215.042969 262.75 215.28125 265.261719 C 215.558594 268.933594 211.140625 270.839844 208.195312 272.960938 C 204.824219 275.289062 203.496094 277.546875 200.417969 275.605469 L 199.765625 274.21875 " fill-opacity="1" fill-rule="nonzero"/><path fill="#e6cf3c" d="M 359.046875 230.585938 C 358.257812 226.375 359.746094 207.535156 352.726562 207.328125 C 349.828125 207.128906 349.375 211.792969 347.824219 213.984375 C 345.714844 217.113281 343.15625 216.414062 344.703125 220.964844 C 346.050781 225.121094 353.765625 234.640625 356.773438 232.421875 L 359.046875 230.585938 " fill-opacity="1" fill-rule="nonzero"/><path fill="#e6cf3c" d="M 361.976562 233.8125 C 364.292969 230.175781 374.703125 213.660156 366.578125 212.179688 C 364.078125 211.699219 361.292969 214.542969 359.207031 215.914062 C 356.203125 217.984375 357.492188 222.679688 357.691406 226.339844 C 357.996094 230.464844 357.085938 232.925781 360.5 234.160156 L 361.976562 233.8125 " fill-opacity="1" fill-rule="nonzero"/><path fill="#3a5a3c" d="M 89.414062 290.339844 C 93.015625 289.308594 94.222656 281.777344 93.714844 278.601562 C 88.585938 278.191406 87.488281 286.019531 88.105469 289.488281 L 89.414062 290.339844 " fill-opacity="1" fill-rule="nonzero"/><path fill="#3a5a3c" d="M 89.125 290.453125 C 86.6875 291.609375 82.609375 288.328125 81.449219 286.472656 C 84.070312 283.867188 88.222656 287.351562 89.457031 289.410156 L 89.125 290.453125 " fill-opacity="1" fill-rule="nonzero"/><path fill="#3a5a3c" d="M 201.484375 277.949219 C 203.566406 281.105469 210.996094 279.9375 213.8125 278.464844 C 212.609375 273.390625 204.933594 274.753906 201.871094 276.421875 L 201.484375 277.949219 " fill-opacity="1" fill-rule="nonzero"/><path fill="#3a5a3c" d="M 201.285156 277.707031 C 199.449219 275.707031 201.257812 270.761719 202.636719 269.066406 C 205.890625 270.789062 203.914062 275.871094 202.367188 277.703125 L 201.285156 277.707031 " fill-opacity="1" fill-rule="nonzero"/><path fill="#3a5a3c" d="M 248.179688 270.464844 C 243.035156 270.898438 237.894531 261.761719 237.035156 257.414062 C 243.460938 254.367188 248.605469 263.941406 249.464844 268.722656 L 248.179688 270.464844 " fill-opacity="1" fill-rule="nonzero"/><path fill="#3a5a3c" d="M 248.605469 270.46875 C 252.308594 270.765625 256.007812 264.53125 256.621094 261.5625 C 251.996094 259.484375 248.296875 266.019531 247.679688 269.28125 L 248.605469 270.46875 " fill-opacity="1" fill-rule="nonzero"/><path fill="#3a5a3c" d="M 246.820312 266.550781 C 253.289062 283.074219 253.226562 300.925781 254.339844 318.375 C 255.46875 336.046875 257.066406 354.738281 251.792969 371.902344 C 251.449219 373.015625 253.1875 373.488281 253.53125 372.382812 C 258.714844 355.511719 257.480469 336.953125 256.226562 319.574219 C 254.921875 301.5625 255.25 283.15625 248.558594 266.070312 C 248.140625 265 246.394531 265.464844 246.820312 266.550781 " fill-opacity="1" fill-rule="nonzero"/><path fill="#3a5a3c" d="M 88.550781 289.972656 C 95.703125 301.40625 101.609375 313.878906 106.585938 326.394531 C 108.738281 331.800781 110.753906 337.320312 111.179688 343.15625 C 111.898438 353.027344 112.648438 363.203125 108.296875 372.40625 C 107.800781 373.457031 109.355469 374.367188 109.851562 373.316406 C 113.828125 364.914062 113.832031 355.8125 113.238281 346.714844 C 112.792969 339.871094 111.402344 334 108.972656 327.582031 C 103.953125 314.3125 97.636719 301.097656 90.105469 289.0625 C 89.492188 288.078125 87.929688 288.984375 88.550781 289.972656 " fill-opacity="1" fill-rule="nonzero"/><path fill="#3a5a3c" d="M 201.375 275.367188 C 193.796875 289.457031 187.675781 304.632812 182.632812 319.796875 C 180.371094 326.609375 178.820312 333.160156 178.371094 340.3125 C 177.679688 351.347656 177.273438 362.675781 181.539062 373.101562 C 181.976562 374.164062 183.71875 373.699219 183.28125 372.625 C 179.070312 362.332031 179.507812 351.203125 180.175781 340.3125 C 180.625 333.007812 182.351562 326.363281 184.65625 319.425781 C 189.554688 304.6875 195.570312 289.964844 202.929688 276.277344 C 203.484375 275.25 201.925781 274.339844 201.375 275.367188 " fill-opacity="1" fill-rule="nonzero"/><path fill="#3a5a3c" d="M 312.175781 277.949219 C 314.257812 281.105469 321.6875 279.9375 324.507812 278.464844 C 323.304688 273.390625 315.628906 274.753906 312.570312 276.421875 L 312.175781 277.949219 " fill-opacity="1" fill-rule="nonzero"/><path fill="#3a5a3c" d="M 311.980469 277.707031 C 310.144531 275.707031 311.953125 270.761719 313.332031 269.066406 C 316.582031 270.789062 314.609375 275.871094 313.0625 277.703125 L 311.980469 277.707031 " fill-opacity="1" fill-rule="nonzero"/><path fill="#3a5a3c" d="M 312.066406 275.367188 C 304.492188 289.457031 298.371094 304.632812 293.328125 319.796875 C 291.066406 326.609375 289.515625 333.160156 289.066406 340.3125 C 288.371094 351.347656 287.96875 362.675781 292.234375 373.101562 C 292.667969 374.164062 294.414062 373.699219 293.972656 372.625 C 289.765625 362.332031 290.199219 351.203125 290.867188 340.3125 C 291.320312 333.007812 293.046875 326.363281 295.351562 319.425781 C 300.25 304.6875 306.261719 289.964844 313.625 276.277344 C 314.175781 275.25 312.621094 274.339844 312.066406 275.367188 " fill-opacity="1" fill-rule="nonzero"/><path fill="#3a5a3c" d="M 152.363281 248.839844 C 157.503906 249.273438 162.648438 240.136719 163.507812 235.789062 C 157.078125 232.746094 151.933594 242.316406 151.078125 247.097656 L 152.363281 248.839844 " fill-opacity="1" fill-rule="nonzero"/><path fill="#3a5a3c" d="M 151.9375 248.84375 C 148.234375 249.140625 144.535156 242.90625 143.917969 239.9375 C 148.542969 237.859375 152.246094 244.394531 152.863281 247.65625 L 151.9375 248.84375 " fill-opacity="1" fill-rule="nonzero"/><g clip-path="url(#3c3278bbe4)"><path fill="#3a5a3c" d="M 151.984375 248.808594 C 145.296875 268.863281 145.527344 290.214844 144.363281 311.089844 C 143.203125 331.90625 141.675781 353.710938 147.011719 374.09375 C 147.304688 375.214844 149.046875 374.738281 148.75 373.613281 C 143.464844 353.433594 144.949219 331.703125 146.164062 311.089844 C 147.386719 290.355469 147.074219 269.21875 153.722656 249.285156 C 154.089844 248.183594 152.347656 247.710938 151.984375 248.808594 " fill-opacity="1" fill-rule="nonzero"/></g><path fill="#3a5a3c" d="M 357.488281 235.808594 C 353.757812 236.125 350.027344 229.496094 349.402344 226.34375 C 354.066406 224.132812 357.796875 231.074219 358.421875 234.546875 L 357.488281 235.808594 " fill-opacity="1" fill-rule="nonzero"/><path fill="#3a5a3c" d="M 357.796875 235.808594 C 360.480469 236.023438 363.164062 231.503906 363.613281 229.355469 C 360.257812 227.84375 357.570312 232.582031 357.125 234.949219 L 357.796875 235.808594 " fill-opacity="1" fill-rule="nonzero"/><g clip-path="url(#2be9c15979)"><path fill="#3a5a3c" d="M 355.757812 232.421875 C 355.398438 279.5625 354.003906 326.707031 355.046875 373.851562 C 355.074219 375.011719 356.875 375.015625 356.851562 373.851562 C 355.804688 326.707031 357.199219 279.5625 357.5625 232.421875 C 357.570312 231.257812 355.765625 231.257812 355.757812 232.421875 " fill-opacity="1" fill-rule="nonzero"/></g><path fill="#3a5a3c" d="M 99.988281 257.789062 C 96.261719 258.101562 92.53125 251.480469 91.910156 248.324219 C 96.574219 246.113281 100.304688 253.058594 100.921875 256.527344 L 99.988281 257.789062 " fill-opacity="1" fill-rule="nonzero"/><path fill="#3a5a3c" d="M 100.300781 257.792969 C 102.984375 258.007812 105.671875 253.484375 106.117188 251.332031 C 102.757812 249.828125 100.078125 254.5625 99.628906 256.929688 L 100.300781 257.792969 " fill-opacity="1" fill-rule="nonzero"/><g clip-path="url(#7e773a4db4)"><path fill="#3a5a3c" d="M 98.261719 254.527344 C 97.898438 294.300781 96.511719 334.078125 97.550781 373.851562 C 97.582031 375.011719 99.382812 375.015625 99.351562 373.851562 C 98.3125 334.078125 99.699219 294.300781 100.0625 254.527344 C 100.074219 253.367188 98.269531 253.367188 98.261719 254.527344 " fill-opacity="1" fill-rule="nonzero"/></g><path fill="#3a5a3c" d="M 300.195312 257.789062 C 296.464844 258.101562 292.734375 251.480469 292.113281 248.324219 C 296.773438 246.113281 300.503906 253.058594 301.125 256.527344 L 300.195312 257.789062 " fill-opacity="1" fill-rule="nonzero"/><path fill="#3a5a3c" d="M 300.5 257.792969 C 303.191406 258.007812 305.871094 253.484375 306.320312 251.332031 C 302.964844 249.828125 300.277344 254.5625 299.832031 256.929688 L 300.5 257.792969 " fill-opacity="1" fill-rule="nonzero"/><g clip-path="url(#ffc3e00b4e)"><path fill="#3a5a3c" d="M 298.464844 254.527344 C 298.097656 294.300781 296.710938 334.078125 297.753906 373.851562 C 297.785156 375.011719 299.589844 375.015625 299.558594 373.851562 C 298.515625 334.078125 299.902344 294.300781 300.269531 254.527344 C 300.277344 253.367188 298.476562 253.367188 298.464844 254.527344 " fill-opacity="1" fill-rule="nonzero"/></g><path fill="#3a5a3c" d="M 193.449219 257.789062 C 197.179688 258.101562 200.90625 251.480469 201.53125 248.324219 C 196.867188 246.113281 193.136719 253.058594 192.515625 256.527344 L 193.449219 257.789062 " fill-opacity="1" fill-rule="nonzero"/><path fill="#3a5a3c" d="M 193.136719 257.792969 C 190.453125 258.007812 187.765625 253.484375 187.320312 251.332031 C 190.679688 249.828125 193.359375 254.5625 193.808594 256.929688 L 193.136719 257.792969 " fill-opacity="1" fill-rule="nonzero"/><path fill="#3a5a3c" d="M 193.375 255.183594 C 193.738281 294.167969 195.125 333.15625 194.085938 372.144531 C 194.054688 373.304688 195.855469 373.304688 195.886719 372.144531 C 196.925781 333.15625 195.539062 294.167969 195.175781 255.183594 C 195.167969 254.019531 193.363281 254.019531 193.375 255.183594 " fill-opacity="1" fill-rule="nonzero"/><path fill="#3a5a3c" d="M 115.71875 272.304688 C 115.71875 272.304688 105.941406 263.953125 98.9375 297.539062 C 125.039062 277.75 115.71875 272.304688 115.71875 272.304688 " fill-opacity="1" fill-rule="nonzero"/><path fill="#3a5a3c" d="M 129.441406 322.460938 C 129.441406 322.460938 119.660156 314.113281 112.660156 347.695312 C 138.753906 327.910156 129.441406 322.460938 129.441406 322.460938 " fill-opacity="1" fill-rule="nonzero"/><path fill="#3a5a3c" d="M 160.777344 305.957031 C 160.777344 305.957031 151 297.605469 144 331.191406 C 170.097656 311.402344 160.777344 305.957031 160.777344 305.957031 " fill-opacity="1" fill-rule="nonzero"/><path fill="#3a5a3c" d="M 212.046875 309.386719 C 212.046875 309.386719 202.269531 301.035156 195.265625 334.621094 C 221.363281 314.832031 212.046875 309.386719 212.046875 309.386719 " fill-opacity="1" fill-rule="nonzero"/><path fill="#3a5a3c" d="M 271.179688 283.230469 C 271.179688 283.230469 261.402344 274.878906 254.398438 308.464844 C 280.496094 288.675781 271.179688 283.230469 271.179688 283.230469 " fill-opacity="1" fill-rule="nonzero"/><path fill="#3a5a3c" d="M 315.046875 322.460938 C 315.046875 322.460938 305.269531 314.113281 298.269531 347.695312 C 324.363281 327.910156 315.046875 322.460938 315.046875 322.460938 " fill-opacity="1" fill-rule="nonzero"/><g clip-path="url(#15e94af70a)"><path fill="#3a5a3c" d="M 371.914062 322.460938 C 371.914062 322.460938 362.136719 314.113281 355.136719 347.695312 C 381.234375 327.910156 371.914062 322.460938 371.914062 322.460938 " fill-opacity="1" fill-rule="nonzero"/></g><path fill="#3a5a3c" d="M 80.128906 328.972656 C 80.128906 328.972656 89.796875 320.492188 97.234375 353.988281 C 70.882812 334.539062 80.128906 328.972656 80.128906 328.972656 " fill-opacity="1" fill-rule="nonzero"/><path fill="#3a5a3c" d="M 128.679688 263.792969 C 128.679688 263.792969 138.347656 255.316406 145.789062 288.804688 C 119.4375 269.359375 128.679688 263.792969 128.679688 263.792969 " fill-opacity="1" fill-rule="nonzero"/><path fill="#3a5a3c" d="M 171.058594 280.910156 C 171.058594 280.910156 180.726562 272.433594 188.160156 305.925781 C 161.808594 286.476562 171.058594 280.910156 171.058594 280.910156 " fill-opacity="1" fill-rule="nonzero"/><path fill="#3a5a3c" d="M 236.449219 280.019531 C 236.449219 280.019531 246.121094 271.546875 253.558594 305.035156 C 227.207031 285.585938 236.449219 280.019531 236.449219 280.019531 " fill-opacity="1" fill-rule="nonzero"/><path fill="#3a5a3c" d="M 281.75 265.402344 C 281.75 265.402344 291.417969 256.925781 298.855469 290.417969 C 272.503906 270.972656 281.75 265.402344 281.75 265.402344 " fill-opacity="1" fill-rule="nonzero"/><path fill="#3a5a3c" d="M 272.136719 322.59375 C 272.136719 322.59375 281.804688 314.113281 289.246094 347.605469 C 262.894531 328.160156 272.136719 322.59375 272.136719 322.59375 " fill-opacity="1" fill-rule="nonzero"/><path fill="#3a5a3c" d="M 338.816406 250.867188 C 338.816406 250.867188 348.484375 242.394531 355.921875 275.882812 C 329.570312 256.4375 338.816406 250.867188 338.816406 250.867188 " fill-opacity="1" fill-rule="nonzero"/><path fill="#3a5a3c" d="M 338.816406 282.585938 C 338.816406 282.585938 348.484375 274.109375 355.921875 307.601562 C 329.570312 288.152344 338.816406 282.585938 338.816406 282.585938 " fill-opacity="1" fill-rule="nonzero"/><path fill="#3a5a3c" d="M 238.609375 317.742188 C 238.609375 317.742188 248.273438 309.269531 255.714844 342.757812 C 229.363281 323.308594 238.609375 317.742188 238.609375 317.742188 " fill-opacity="1" fill-rule="nonzero"/><path fill="#3a5a3c" d="M 162.882812 339.296875 C 162.882812 339.296875 172.550781 330.820312 179.988281 364.3125 C 153.636719 344.863281 162.882812 339.296875 162.882812 339.296875 " fill-opacity="1" fill-rule="nonzero"/></svg>